<svg width="1080" height="1920" viewBox="0 0 1080 1920" fill="none" xmlns="http://www.w3.org/2000/svg">
<path d="M93.824 1558.66C68.352 1558.66 52.608 1539.34 52.608 1511.3C52.608 1483.66 68.352 1463.56 94.208 1463.56C113.536 1463.56 126.336 1474.31 129.408 1491.34H120.96C118.528 1479.43 109.056 1470.98 94.08 1470.98C72.576 1470.98 61.568 1488.78 61.568 1511.3C61.568 1534.22 72.96 1551.11 93.952 1551.11C111.616 1551.11 121.216 1538.82 122.624 1523.72H130.944C130.432 1532.68 126.976 1541.64 121.472 1547.66C115.072 1554.82 105.472 1558.66 93.824 1558.66ZM141.281 1557V1490.82H149.217V1503.11H149.473C153.569 1495.43 160.481 1490.31 169.697 1490.31C170.721 1490.31 171.361 1490.44 171.873 1490.57V1498.38C167.137 1497.61 161.889 1498.63 157.793 1501.58C152.673 1505.42 149.217 1511.56 149.217 1519.37V1557H141.281ZM204.798 1558.66C184.958 1558.66 173.95 1543.82 173.95 1523.98C173.95 1504.14 185.854 1489.29 204.158 1489.29C225.406 1489.29 232.702 1506.82 232.574 1525.38H182.142C182.526 1540.23 189.694 1551.88 204.798 1551.88C215.806 1551.88 221.566 1545.99 224.126 1537.03H231.806C228.99 1550.09 219.646 1558.66 204.798 1558.66ZM182.27 1519.11H224.254C223.87 1506.06 217.726 1495.82 204.158 1495.82C190.718 1495.82 183.678 1505.93 182.27 1519.11ZM260.326 1558.54C248.038 1558.54 238.694 1552.39 238.694 1540.1C238.694 1524.36 250.982 1521.16 265.958 1519.37C279.014 1517.83 283.75 1517.06 283.75 1510.41V1509.13C283.75 1500.17 278.118 1495.82 267.878 1495.82C256.102 1495.82 249.958 1500.68 249.318 1510.54H241.51C242.406 1497.74 250.854 1489.42 267.878 1489.42C282.342 1489.42 291.302 1495.43 291.302 1509.9V1545.86C291.302 1549.83 292.838 1551.5 295.654 1551.62C296.55 1551.62 297.446 1551.37 298.598 1551.11H298.982V1556.87C297.83 1557.38 296.166 1557.9 293.606 1557.9C287.846 1557.9 284.262 1554.95 283.878 1548.55V1547.14H283.494C279.782 1552.39 272.998 1558.54 260.326 1558.54ZM261.734 1552.14C276.198 1552.14 283.878 1542.15 283.878 1533.06V1521.16C279.654 1523.46 273.126 1524.62 266.726 1525.51C255.59 1527.05 247.014 1528.71 247.014 1540.1C247.014 1549.32 253.926 1552.14 261.734 1552.14ZM322.582 1557.51C315.03 1557.51 309.91 1554.06 309.91 1545.61V1497.35H299.926V1490.82H309.91V1470.47H317.846V1490.82H330.134V1497.35H317.846V1544.33C317.846 1549.06 320.022 1550.6 324.246 1550.6C326.038 1550.6 328.342 1550.09 329.494 1549.58H329.878V1556.36C327.702 1557.13 325.398 1557.51 322.582 1557.51ZM340.787 1557V1490.82H348.723V1557H340.787ZM340.787 1476.74V1465.48H348.723V1476.74H340.787ZM379.692 1557L356.268 1490.82H364.716L378.924 1532.81C381.1 1539.21 384.3 1549.58 384.3 1549.58H384.556C384.556 1549.58 387.884 1539.21 390.06 1532.81L404.908 1490.82H412.972L389.036 1557H379.692ZM446.048 1558.66C426.208 1558.66 415.2 1543.82 415.2 1523.98C415.2 1504.14 427.104 1489.29 445.408 1489.29C466.656 1489.29 473.952 1506.82 473.824 1525.38H423.392C423.776 1540.23 430.944 1551.88 446.048 1551.88C457.056 1551.88 462.816 1545.99 465.376 1537.03H473.056C470.24 1550.09 460.896 1558.66 446.048 1558.66ZM423.52 1519.11H465.504C465.12 1506.06 458.976 1495.82 445.408 1495.82C431.968 1495.82 424.928 1505.93 423.52 1519.11ZM93.824 1702.66C68.352 1702.66 52.608 1683.34 52.608 1655.3C52.608 1627.66 68.352 1607.56 94.208 1607.56C113.536 1607.56 126.336 1618.31 129.408 1635.34H120.96C118.528 1623.43 109.056 1614.98 94.08 1614.98C72.576 1614.98 61.568 1632.78 61.568 1655.3C61.568 1678.22 72.96 1695.11 93.952 1695.11C111.616 1695.11 121.216 1682.82 122.624 1667.72H130.944C130.432 1676.68 126.976 1685.64 121.472 1691.66C115.072 1698.82 105.472 1702.66 93.824 1702.66ZM168.545 1696.01C183.265 1696.01 190.945 1683.46 190.945 1667.98C190.945 1652.49 183.265 1639.94 168.545 1639.94C153.697 1639.94 146.017 1652.49 146.017 1667.98C146.017 1683.46 153.697 1696.01 168.545 1696.01ZM168.545 1702.66C149.473 1702.66 137.825 1687.69 137.825 1667.98C137.825 1648.26 149.473 1633.29 168.545 1633.29C187.617 1633.29 199.009 1648.26 199.009 1667.98C199.009 1687.69 187.617 1702.66 168.545 1702.66ZM234.119 1702.79C216.327 1702.79 205.575 1688.46 205.575 1668.1C205.575 1646.09 218.119 1633.42 233.863 1633.42C243.975 1633.42 251.399 1638.15 255.623 1645.83H255.879V1609.48H263.815V1701H255.879V1691.14H255.623C250.759 1698.7 244.103 1702.79 234.119 1702.79ZM234.375 1696.14C248.839 1696.14 256.519 1684.74 256.519 1668.23C256.519 1651.98 248.711 1640.07 234.375 1640.07C221.319 1640.07 213.767 1651.72 213.767 1668.23C213.767 1683.72 220.423 1696.14 234.375 1696.14ZM277.412 1701V1634.82H285.348V1701H277.412ZM277.412 1620.74V1609.48H285.348V1620.74H277.412ZM298.781 1701V1634.82H306.717V1644.94H306.973C311.453 1638.28 318.621 1633.42 329.117 1633.42C341.405 1633.42 350.237 1640.71 350.237 1654.02V1701H342.301V1654.79C342.301 1644.81 336.541 1640.2 327.197 1640.2C315.933 1640.2 306.717 1648.14 306.717 1659.02V1701H298.781ZM388.887 1724.17C372.631 1724.17 363.543 1716.74 362.391 1706.89H370.071C371.479 1714.57 379.031 1717.64 388.631 1717.64C402.711 1717.64 409.367 1710.34 409.367 1698.7V1688.2H408.983C404.119 1695.62 397.975 1699.72 387.991 1699.72C370.583 1699.72 359.575 1686.15 359.575 1666.7C359.575 1645.19 372.631 1633.42 387.991 1633.42C398.231 1633.42 404.631 1637.9 408.983 1645.06H409.367V1634.82H417.175V1698.44C417.175 1705.86 414.999 1711.88 411.031 1716.23C406.039 1721.48 398.743 1724.17 388.887 1724.17ZM388.375 1693.06C403.095 1693.06 409.879 1682.44 409.879 1666.57C409.879 1650.95 402.967 1640.07 388.503 1640.07C375.447 1640.07 367.767 1650.7 367.767 1666.82C367.767 1681.93 374.423 1693.06 388.375 1693.06ZM56.192 1845L56.192 1753.48H65.536L107.648 1817.74C112.256 1824.65 116.736 1832.84 116.736 1832.84H116.992V1753.48H125.184L125.184 1845H116.224L74.24 1781.51C70.016 1775.11 64.64 1766.02 64.64 1766.02H64.384V1845H56.192ZM167.295 1845V1805.06L134.271 1753.48H143.743L171.647 1797.77H171.903L200.063 1753.48H209.279L175.999 1805.32V1845H167.295ZM248.324 1846.66C222.852 1846.66 207.108 1827.34 207.108 1799.3C207.108 1771.66 222.852 1751.56 248.708 1751.56C268.036 1751.56 280.836 1762.31 283.908 1779.34H275.46C273.028 1767.43 263.556 1758.98 248.58 1758.98C227.076 1758.98 216.068 1776.78 216.068 1799.3C216.068 1822.22 227.46 1839.11 248.452 1839.11C266.116 1839.11 275.716 1826.82 277.124 1811.72H285.444C284.932 1820.68 281.476 1829.64 275.972 1835.66C269.572 1842.82 259.972 1846.66 248.324 1846.66Z" fill="white"/>
<path d="M706.192 165V73.48L765.84 73.48V81.032L714.768 81.032V113.544H758.288V120.968H714.768V165H706.192ZM797.423 166.664C777.583 166.664 766.575 151.816 766.575 131.976C766.575 112.136 778.479 97.288 796.783 97.288C818.031 97.288 825.327 114.824 825.199 133.384L774.767 133.384C775.151 148.232 782.319 159.88 797.423 159.88C808.431 159.88 814.191 153.992 816.751 145.032H824.431C821.615 158.088 812.271 166.664 797.423 166.664ZM774.895 127.112L816.879 127.112C816.495 114.056 810.351 103.816 796.783 103.816C783.343 103.816 776.303 113.928 774.895 127.112ZM865.111 166.792C854.999 166.792 848.343 162.824 843.223 155.016H842.967V165H835.031V73.48H842.967V110.216H843.223C847.831 102.536 855.127 97.416 865.623 97.416C881.495 97.416 892.887 110.088 892.887 132.104C892.887 152.456 882.519 166.792 865.111 166.792ZM864.727 160.136C878.295 160.136 884.823 147.72 884.823 132.232C884.823 115.72 877.783 104.072 864.599 104.072C850.007 104.072 842.327 116.488 842.327 132.232C842.327 148.744 850.007 160.136 864.727 160.136ZM938.156 165V99.08H919.724V93.448C932.652 92.808 938.668 89.864 940.204 76.808H946.476V165H938.156ZM994.751 159.624C1010.62 159.624 1018.56 145.16 1018.56 121.096C1018.56 97.544 1010.24 82.44 994.751 82.44C979.135 82.44 970.815 97.032 970.815 121.096C970.815 144.648 979.135 159.624 994.751 159.624ZM994.623 166.792C973.887 166.792 962.239 149 962.239 121.096C962.239 92.68 974.911 75.4 994.751 75.4C1014.59 75.4 1027.14 92.424 1027.14 121.096C1027.14 149 1015.62 166.792 994.623 166.792ZM699.492 310.792C690.532 310.792 684.26 307.976 679.14 303.368C670.436 295.56 667.364 282.76 667.364 264.584C667.364 238.472 678.5 219.4 700.004 219.4C715.364 219.4 723.812 229.512 725.22 242.184H716.9C716.132 233.224 709.988 226.568 700.132 226.568C682.98 226.568 675.428 242.568 675.556 266.76H675.812C681.06 257.672 689.252 252.552 699.748 252.552C715.876 252.552 727.524 264.712 727.524 281.096C727.652 297.736 716.004 310.792 699.492 310.792ZM699.236 303.88C711.268 303.88 719.46 294.408 719.46 281.352C719.46 268.296 711.14 259.464 699.236 259.464C686.82 259.464 677.732 268.552 677.732 281.608C677.732 294.92 686.564 303.88 699.236 303.88ZM736.605 276.744V269.576H769.373V276.744H736.605ZM809.7 310.792C793.572 310.792 778.596 301.96 778.596 284.424C778.596 272.136 786.02 264.84 795.876 261.384V261C787.812 257.8 782.82 251.016 782.82 241.928C782.82 228.616 794.34 219.4 809.444 219.4C825.316 219.4 836.068 229 836.068 241.928C836.068 251.016 830.948 257.672 822.884 260.872V261.256C832.612 264.328 840.292 272.904 840.292 284.424C840.292 302.216 825.828 310.792 809.7 310.792ZM809.7 303.752C823.524 303.752 831.972 295.688 831.972 284.424C831.972 272.904 823.524 264.84 809.316 264.84C795.236 264.84 787.172 272.904 787.172 284.424C787.172 295.816 795.364 303.752 809.7 303.752ZM809.316 258.056C820.836 258.056 827.876 251.144 827.876 242.312C827.876 233.224 821.092 226.312 809.444 226.312C797.796 226.312 791.012 233.224 791.012 242.312C791.012 251.144 797.54 258.056 809.316 258.056ZM870.406 330.248V242.824H878.342V254.216H878.598C883.206 246.408 890.502 241.416 900.998 241.416C916.87 241.416 928.39 253.96 928.39 275.976C928.39 296.328 917.894 310.664 900.486 310.664C890.374 310.664 883.59 306.696 878.598 299.4H878.342V330.248H870.406ZM900.102 304.008C913.67 304.008 920.326 291.464 920.326 276.104C920.326 259.592 913.158 248.072 899.974 248.072C885.382 248.072 877.702 260.488 877.702 276.232C877.702 292.488 884.998 304.008 900.102 304.008ZM938.281 309V242.824H946.217V252.808H946.473C950.697 246.152 957.097 241.416 966.569 241.416C974.633 241.416 981.545 245.512 984.233 253.448H984.489C988.841 245.896 996.393 241.416 1005.74 241.416C1017 241.416 1025.71 248.712 1025.71 262.024V309H1017.9V262.664C1017.9 252.808 1012.01 248.2 1003.94 248.2C994.217 248.2 986.025 255.112 986.025 266.888V309H978.089V262.664C978.089 252.808 972.457 248.2 964.777 248.2C955.305 248.2 946.217 256.136 946.217 266.888V309H938.281ZM693.692 453L693.692 361.48H729.66C739.644 361.48 746.3 364.296 751.164 369.416C755.26 373.768 757.564 379.528 757.564 387.08C757.564 403.976 747.708 413.192 728.508 413.192H702.268L702.268 453H693.692ZM702.268 405.896H727.868C742.716 405.896 748.86 398.856 748.86 387.336C748.86 375.56 741.82 369.032 728.636 369.032H702.268V405.896ZM767.412 453L767.412 386.824H775.348L775.348 453H767.412ZM767.412 372.744V361.48H775.348V372.744H767.412ZM816.173 454.664C796.333 454.664 785.325 439.816 785.325 419.976C785.325 400.136 797.229 385.288 815.533 385.288C836.781 385.288 844.077 402.824 843.949 421.384L793.517 421.384C793.901 436.232 801.069 447.88 816.173 447.88C827.181 447.88 832.941 441.992 835.501 433.032L843.181 433.032C840.365 446.088 831.021 454.664 816.173 454.664ZM793.645 415.112H835.629C835.245 402.056 829.101 391.816 815.533 391.816C802.093 391.816 795.053 401.928 793.645 415.112ZM853.781 453V386.824H861.717V399.112H861.973C866.069 391.432 872.981 386.312 882.197 386.312C883.221 386.312 883.861 386.44 884.373 386.568V394.376C879.637 393.608 874.389 394.632 870.293 397.576C865.173 401.416 861.717 407.56 861.717 415.368V453H853.781ZM938.006 454.792C921.494 454.792 909.462 444.296 909.078 429.32H917.27C918.678 440.328 925.206 447.24 937.878 447.24C950.934 447.24 958.614 438.024 958.614 424.712C958.614 411.144 950.166 402.952 938.39 402.952C928.534 402.952 922.646 406.92 919.19 411.912H911.254L919.062 365.32H962.71V372.744H925.078L920.214 402.696H920.47C925.334 398.216 930.966 395.656 939.798 395.656C954.006 395.656 967.062 405.768 967.062 424.968C967.062 442.632 955.414 454.792 938.006 454.792ZM985.759 453C988.191 422.408 1002.78 390.664 1021.09 373V372.744H972.319V365.32H1029.66V372.488C1012.26 389.512 997.407 418.568 994.719 453H985.759Z" fill="white"/>
</svg>
